<svg width="335" height="335" viewBox="0 0 335 335" fill="none" xmlns="http://www.w3.org/2000/svg">
<path d="M0 50.0001C0 22.3859 22.3858 6.10352e-05 50 6.10352e-05H284.161C311.776 6.10352e-05 334.161 22.3858 334.161 50.0001V284.161C334.161 311.776 311.776 334.161 284.161 334.161H50C22.3858 334.161 0 311.776 0 284.161V50.0001Z" fill="url(#paint0_linear_24_1434)"></path>
<path d="M284.161 313.161V334.161H50V313.161H284.161ZM313.161 284.161V50.0001C313.161 33.9838 300.177 21.0001 284.161 21.0001H50C33.9838 21.0001 21 33.9838 21 50.0001V284.161C21 300.177 33.9837 313.161 50 313.161V334.161C22.3858 334.161 0 311.775 0 284.161V50.0001C1.75362e-05 22.3858 22.3858 6.24226e-05 50 6.10352e-05H284.161C311.775 6.10352e-05 334.161 22.3858 334.161 50.0001V284.161C334.161 311.775 311.775 334.161 284.161 334.161V313.161C300.177 313.161 313.161 300.177 313.161 284.161Z" fill="black"></path>
<path d="M161.289 129.119C161.289 129.119 172.183 132.69 186.776 140.511C211.053 153.547 225.761 174.053 240.766 175.321C256.342 176.613 264.312 167.382 260.909 148.122C257.735 130.153 231.95 109.06 231.95 109.06C231.95 109.06 255.497 113.617 255.497 99.7352C255.497 85.4777 242.799 78.619 222.815 71.5489C209.5 66.8512 173.69 56.4223 125.684 75.1192C105.038 83.1523 79.825 97.997 60.6865 126.442C35.6558 163.648 30.5857 212.034 35.3361 248.77C41.0913 293.14 59.0422 316.018 59.4761 316.206C59.91 316.394 62.2624 264.038 82.3372 241.324C99.443 221.97 116.937 229.909 137.72 228.852C162.225 227.607 173.165 201.582 154.46 181.734C138.405 164.681 111.799 166.208 111.799 166.208C111.799 166.208 120.614 162.591 137.354 161.04C156.584 159.232 160.375 147.746 161.746 143.447C164.783 133.958 161.289 129.119 161.289 129.119Z" fill="#1B6DA4"></path>
<path d="M59.4302 316.159C62.559 318.648 74.5668 323.995 108.55 321.858C144.931 319.556 182.209 327.926 237.363 327.926C286.26 327.926 311.587 303.31 309.851 299.388C308.687 296.781 289.388 291.989 267.19 280.127C240.492 265.87 212.378 251.589 190.887 219.48C177.116 198.927 167.295 175.251 180.838 156.695C194.358 138.139 228.707 146.712 228.707 146.712L181.889 94.6381L92.7512 119.63L47.6456 235.922L52.5102 295.136L59.4302 316.159Z" fill="url(#paint1_radial_24_1434)"></path>
<path d="M113.077 129.566C111.798 121.814 133.997 114.815 157.246 118.573C193.422 124.422 222.061 158.363 234.211 163.319C252.116 170.647 258.42 155.591 249.444 139.29C240.195 122.449 215.712 108.121 216.626 102.554C218.27 92.6652 243.346 107.721 244.876 96.7287C245.904 89.4472 227.177 78.9713 209.386 74.2971C195.066 70.5389 164.988 65.9117 123.423 84.5381C69.3874 108.802 46.0239 157.071 42.1642 207.642C38.5101 255.605 56.3239 291.355 56.3239 291.355C56.3239 291.355 57.5344 255.558 74.9828 235.851C87.7265 221.476 104.079 216.074 121.824 219.55C151.422 225.375 164.326 203.367 150.098 187.465C140.78 177.06 128.835 173.818 116.48 173.395C95.1261 172.691 83.6385 180.043 83.0219 177.553C82.1083 173.771 93.6873 165.01 108.372 158.715C127.693 150.447 151.011 156.108 154.665 139.478C156.447 131.374 151.993 126.935 139.25 125.972C123.149 124.774 113.168 130.129 113.077 129.566Z" fill="url(#paint2_linear_24_1434)"></path>
<path d="M46.4758 313.326H285.117V334.161H46.4758V313.326Z" fill="black"></path>
<path d="M284.161 313.161V334.161H50V313.161H284.161ZM313.161 284.161V50C313.161 33.9838 300.177 21 284.161 21H50C33.9838 21 21 33.9837 21 50V284.161C21 300.177 33.9837 313.161 50 313.161V334.161C22.3858 334.161 0 311.775 0 284.161V50C1.75362e-05 22.3858 22.3858 1.3874e-06 50 0H284.161C311.775 0 334.161 22.3858 334.161 50V284.161C334.161 311.775 311.775 334.161 284.161 334.161V313.161C300.177 313.161 313.161 300.177 313.161 284.161Z" fill="#002453"></path>
<defs>
<linearGradient id="paint0_linear_24_1434" x1="167.081" y1="6.10352e-05" x2="167.081" y2="334.161" gradientUnits="userSpaceOnUse">
<stop offset="0.192308" stop-color="#033258"></stop>
<stop offset="0.418269" stop-color="#024D8B"></stop>
<stop offset="0.725962" stop-color="#003967"></stop>
</linearGradient>
<radialGradient id="paint1_radial_24_1434" cx="0" cy="0" r="1" gradientUnits="userSpaceOnUse" gradientTransform="translate(162.638 41.002) scale(259.687 267.081)">
<stop offset="0.423" stop-color="#45D6F0"></stop>
<stop offset="0.518" stop-color="#41CDE9"></stop>
<stop offset="0.674" stop-color="#37B4D7"></stop>
<stop offset="0.87" stop-color="#278BBA"></stop>
<stop offset="1" stop-color="#1B6DA4"></stop>
</radialGradient>
<linearGradient id="paint2_linear_24_1434" x1="147.584" y1="70.8848" x2="147.584" y2="291.355" gradientUnits="userSpaceOnUse">
<stop stop-color="#C7E8FF"></stop>
<stop offset="0.0001" stop-color="white"></stop>
<stop offset="1" stop-color="#3FACFA"></stop>
</linearGradient>
</defs>
</svg>