<svg version="1.1" id="Layer_1" xmlns="http://www.w3.org/2000/svg" xmlns:xlink="http://www.w3.org/1999/xlink" x="0px" y="0px" width="100%" viewBox="0 0 2000 2000" enable-background="new 0 0 2000 2000" xml:space="preserve">
<path fill="#FFFFFF" opacity="1.000000" stroke="none" d="&#xA;M1315.000000,2001.000000 &#xA;&#x9;C876.666687,2001.000000 438.833344,2001.000000 1.000000,2001.000000 &#xA;&#x9;C1.000000,1334.333374 1.000000,667.666687 1.000000,1.000000 &#xA;&#x9;C667.666687,1.000000 1334.333374,1.000000 2001.000000,1.000000 &#xA;&#x9;C2001.000000,667.666687 2001.000000,1334.333374 2001.000000,2001.000000 &#xA;&#x9;C1772.500000,2001.000000 1544.000000,2001.000000 1315.000000,2001.000000 &#xA;M591.251953,1951.831665 &#xA;&#x9;C599.237915,1950.208862 607.272949,1948.794922 615.202087,1946.930542 &#xA;&#x9;C678.852234,1931.965698 731.892822,1899.809814 773.544983,1849.158569 &#xA;&#x9;C799.130188,1818.045410 818.309326,1783.274048 833.080933,1745.940918 &#xA;&#x9;C833.806885,1744.106201 834.633850,1742.311401 835.413818,1740.498047 &#xA;&#x9;C835.708618,1740.596680 836.003418,1740.695435 836.298218,1740.794189 &#xA;&#x9;C836.298218,1809.732788 836.298218,1878.671387 836.298218,1947.824219 &#xA;&#x9;C837.264648,1947.660278 837.914429,1947.595459 838.540527,1947.437134 &#xA;&#x9;C876.002075,1937.955322 913.874756,1930.259888 952.285767,1926.364868 &#xA;&#x9;C995.186707,1922.014282 1038.222900,1918.361938 1081.291016,1916.430664 &#xA;&#x9;C1163.398315,1912.748413 1245.542480,1912.302979 1327.532837,1919.870117 &#xA;&#x9;C1333.090088,1920.382935 1338.666504,1920.688843 1344.090332,1921.080688 &#xA;&#x9;C1344.090332,1903.699951 1344.090332,1886.968628 1344.090332,1871.655518 &#xA;&#x9;C1326.003418,1869.037720 1308.186890,1867.600830 1290.926025,1863.703125 &#xA;&#x9;C1262.387573,1857.258667 1238.545288,1842.687500 1222.302734,1817.582397 &#xA;&#x9;C1210.902832,1799.962280 1203.871460,1780.463501 1198.941284,1760.156982 &#xA;&#x9;C1190.194214,1724.130737 1188.126587,1687.438232 1188.125366,1650.558228 &#xA;&#x9;C1188.107422,1106.263428 1188.113037,561.968689 1188.113037,17.673918 &#xA;&#x9;C1188.113037,15.532211 1188.113037,13.390505 1188.113037,11.307129 &#xA;&#x9;C1019.983521,45.992924 850.646301,51.095760 680.364746,38.256992 &#xA;&#x9;C680.364746,55.194389 680.364746,72.069618 680.364746,88.495125 &#xA;&#x9;C691.551880,89.341248 702.408447,89.666603 713.121887,91.078110 &#xA;&#x9;C734.038940,93.833961 754.140808,99.360321 772.249817,110.757919 &#xA;&#x9;C795.702759,125.518906 808.921387,147.819351 818.040710,173.052948 &#xA;&#x9;C831.103333,209.198227 835.695129,246.890854 835.826599,284.951630 &#xA;&#x9;C836.321106,428.106262 836.130066,571.263245 836.186401,714.419312 &#xA;&#x9;C836.186646,715.149902 836.052002,715.880493 835.919556,717.230103 &#xA;&#x9;C834.685364,716.094055 833.965393,715.464050 833.281494,714.797058 &#xA;&#x9;C815.166321,697.129883 794.997925,682.260071 772.422668,670.808960 &#xA;&#x9;C721.991760,645.228333 668.011902,632.712952 612.011597,628.154846 &#xA;&#x9;C568.358154,624.601624 524.797302,625.966064 481.373535,631.880249 &#xA;&#x9;C432.658813,638.515076 385.669434,651.312683 340.654877,671.106567 &#xA;&#x9;C271.222748,701.637390 211.858429,745.683105 163.594910,804.315857 &#xA;&#x9;C120.922577,856.156128 88.700745,914.022949 66.253822,977.223206 &#xA;&#x9;C40.334087,1050.201172 28.059555,1125.894653 23.018572,1202.907349 &#xA;&#x9;C19.739075,1253.009155 19.756721,1303.144287 21.831068,1353.304077 &#xA;&#x9;C24.298080,1412.959106 30.346096,1472.188843 42.066750,1530.774902 &#xA;&#x9;C55.077114,1595.807983 75.396935,1658.287109 107.027283,1716.839233 &#xA;&#x9;C135.956879,1770.391968 171.876785,1818.403442 219.257263,1857.071167 &#xA;&#x9;C290.488922,1915.204224 373.050049,1945.656128 463.824280,1954.900146 &#xA;&#x9;C506.055969,1959.200928 548.338928,1958.772705 591.251953,1951.831665 &#xA;M1600.005737,1038.483643 &#xA;&#x9;C1582.486694,1049.489136 1567.232666,1063.032349 1554.611450,1079.439209 &#xA;&#x9;C1533.436279,1106.965210 1523.354980,1138.629028 1520.620850,1172.829468 &#xA;&#x9;C1517.827881,1207.770142 1520.491577,1242.146851 1534.550903,1274.728149 &#xA;&#x9;C1555.856201,1324.101318 1594.050171,1354.650269 1644.392700,1370.851685 &#xA;&#x9;C1677.780151,1381.596558 1712.198730,1384.033813 1747.073486,1382.033691 &#xA;&#x9;C1775.551758,1380.400513 1803.241089,1375.230469 1829.485474,1363.828979 &#xA;&#x9;C1868.609741,1346.832397 1898.855835,1320.093872 1917.393799,1281.229980 &#xA;&#x9;C1933.228882,1248.032593 1936.876709,1212.662231 1934.495972,1176.441772 &#xA;&#x9;C1932.662231,1148.542847 1926.244263,1121.800659 1912.061890,1097.450073 &#xA;&#x9;C1885.676636,1052.147339 1845.166138,1026.160034 1795.183228,1014.039429 &#xA;&#x9;C1759.360962,1005.352722 1722.963623,1004.571838 1686.469971,1009.128479 &#xA;&#x9;C1655.920166,1012.942932 1627.005127,1021.822632 1600.005737,1038.483643 &#xA;M1671.281982,1525.823730 &#xA;&#x9;C1649.065552,1527.643433 1627.480225,1532.382568 1607.010010,1541.208618 &#xA;&#x9;C1565.515015,1559.099854 1534.787842,1587.849731 1519.519043,1631.177856 &#xA;&#x9;C1508.099365,1663.583130 1506.610352,1696.975708 1511.867676,1730.739014 &#xA;&#x9;C1520.288574,1784.818848 1549.656250,1823.635254 1598.431885,1847.748901 &#xA;&#x9;C1630.621704,1863.662842 1665.247925,1868.538086 1700.774902,1868.361450 &#xA;&#x9;C1732.521851,1868.203735 1763.537476,1863.853882 1792.830322,1850.938354 &#xA;&#x9;C1834.434448,1832.594727 1864.554565,1803.114258 1879.401978,1759.477783 &#xA;&#x9;C1889.683716,1729.260376 1891.162842,1698.160400 1887.107422,1666.705688 &#xA;&#x9;C1880.253418,1613.546387 1853.324951,1573.838501 1806.200439,1548.398438 &#xA;&#x9;C1764.225220,1525.738647 1718.730713,1522.286255 1671.281982,1525.823730 &#xA;z"></path>
<path fill="#000000" opacity="1.000000" stroke="none" d="&#xA;M590.821045,1951.884277 &#xA;&#x9;C548.338928,1958.772705 506.055969,1959.200928 463.824280,1954.900146 &#xA;&#x9;C373.050049,1945.656128 290.488922,1915.204224 219.257263,1857.071167 &#xA;&#x9;C171.876785,1818.403442 135.956879,1770.391968 107.027283,1716.839233 &#xA;&#x9;C75.396935,1658.287109 55.077114,1595.807983 42.066750,1530.774902 &#xA;&#x9;C30.346096,1472.188843 24.298080,1412.959106 21.831068,1353.304077 &#xA;&#x9;C19.756721,1303.144287 19.739075,1253.009155 23.018572,1202.907349 &#xA;&#x9;C28.059555,1125.894653 40.334087,1050.201172 66.253822,977.223206 &#xA;&#x9;C88.700745,914.022949 120.922577,856.156128 163.594910,804.315857 &#xA;&#x9;C211.858429,745.683105 271.222748,701.637390 340.654877,671.106567 &#xA;&#x9;C385.669434,651.312683 432.658813,638.515076 481.373535,631.880249 &#xA;&#x9;C524.797302,625.966064 568.358154,624.601624 612.011597,628.154846 &#xA;&#x9;C668.011902,632.712952 721.991760,645.228333 772.422668,670.808960 &#xA;&#x9;C794.997925,682.260071 815.166321,697.129883 833.281494,714.797058 &#xA;&#x9;C833.965393,715.464050 834.685364,716.094055 835.919556,717.230103 &#xA;&#x9;C836.052002,715.880493 836.186646,715.149902 836.186401,714.419312 &#xA;&#x9;C836.130066,571.263245 836.321106,428.106262 835.826599,284.951630 &#xA;&#x9;C835.695129,246.890854 831.103333,209.198227 818.040710,173.052948 &#xA;&#x9;C808.921387,147.819351 795.702759,125.518906 772.249817,110.757919 &#xA;&#x9;C754.140808,99.360321 734.038940,93.833961 713.121887,91.078110 &#xA;&#x9;C702.408447,89.666603 691.551880,89.341248 680.364746,88.495125 &#xA;&#x9;C680.364746,72.069618 680.364746,55.194389 680.364746,38.256992 &#xA;&#x9;C850.646301,51.095760 1019.983521,45.992924 1188.113037,11.307129 &#xA;&#x9;C1188.113037,13.390505 1188.113037,15.532211 1188.113037,17.673918 &#xA;&#x9;C1188.113037,561.968689 1188.107422,1106.263428 1188.125366,1650.558228 &#xA;&#x9;C1188.126587,1687.438232 1190.194214,1724.130737 1198.941284,1760.156982 &#xA;&#x9;C1203.871460,1780.463501 1210.902832,1799.962280 1222.302734,1817.582397 &#xA;&#x9;C1238.545288,1842.687500 1262.387573,1857.258667 1290.926025,1863.703125 &#xA;&#x9;C1308.186890,1867.600830 1326.003418,1869.037720 1344.090332,1871.655518 &#xA;&#x9;C1344.090332,1886.968628 1344.090332,1903.699951 1344.090332,1921.080688 &#xA;&#x9;C1338.666504,1920.688843 1333.090088,1920.382935 1327.532837,1919.870117 &#xA;&#x9;C1245.542480,1912.302979 1163.398315,1912.748413 1081.291016,1916.430664 &#xA;&#x9;C1038.222900,1918.361938 995.186707,1922.014282 952.285767,1926.364868 &#xA;&#x9;C913.874756,1930.259888 876.002075,1937.955322 838.540527,1947.437134 &#xA;&#x9;C837.914429,1947.595459 837.264648,1947.660278 836.298218,1947.824219 &#xA;&#x9;C836.298218,1878.671387 836.298218,1809.732788 836.298218,1740.794189 &#xA;&#x9;C836.003418,1740.695435 835.708618,1740.596680 835.413818,1740.498047 &#xA;&#x9;C834.633850,1742.311401 833.806885,1744.106201 833.080933,1745.940918 &#xA;&#x9;C818.309326,1783.274048 799.130188,1818.045410 773.544983,1849.158569 &#xA;&#x9;C731.892822,1899.809814 678.852234,1931.965698 615.202087,1946.930542 &#xA;&#x9;C607.272949,1948.794922 599.237915,1950.208862 590.821045,1951.884277 &#xA;M814.449768,1718.903564 &#xA;&#x9;C816.806763,1713.055420 819.442444,1707.302246 821.472595,1701.342651 &#xA;&#x9;C830.414001,1675.094604 836.373840,1648.447144 836.343262,1620.360352 &#xA;&#x9;C836.086670,1384.893188 836.196716,1149.425659 836.196289,913.958252 &#xA;&#x9;C836.196228,870.964233 836.217896,827.970093 836.133667,784.976257 &#xA;&#x9;C836.129333,782.779968 835.895752,780.014038 834.611755,778.485107 &#xA;&#x9;C827.555725,770.083069 820.572388,761.543213 812.763306,753.865051 &#xA;&#x9;C790.839172,732.308350 764.174988,718.734741 735.190186,709.367371 &#xA;&#x9;C700.279358,698.084900 664.538452,694.160828 628.228088,699.526611 &#xA;&#x9;C580.352539,706.601318 541.790894,730.886475 510.228149,766.742737 &#xA;&#x9;C479.879395,801.219788 458.368896,841.019958 442.026733,883.702637 &#xA;&#x9;C423.635254,931.737915 412.618103,981.646606 404.804382,1032.360107 &#xA;&#x9;C397.491638,1079.822144 393.326752,1127.580200 391.087524,1175.514038 &#xA;&#x9;C388.247803,1236.301636 388.423248,1297.118774 389.842712,1357.940796 &#xA;&#x9;C391.593170,1432.942139 396.337860,1507.693359 409.063446,1581.741333 &#xA;&#x9;C416.679535,1626.058105 427.410522,1669.588745 444.192566,1711.416016 &#xA;&#x9;C459.202942,1748.827759 478.605927,1783.433472 509.591064,1810.340576 &#xA;&#x9;C527.753357,1826.112549 547.860229,1838.652222 571.030823,1845.440796 &#xA;&#x9;C611.841125,1857.397827 652.313721,1854.719849 691.240723,1838.479736 &#xA;&#x9;C747.476013,1815.018921 788.398376,1774.968506 814.449768,1718.903564 &#xA;z"></path>
<path fill="#FF6A00" opacity="1.000000" stroke="none" d="&#xA;M1600.311890,1038.284912 &#xA;&#x9;C1627.005127,1021.822632 1655.920166,1012.942932 1686.469971,1009.128479 &#xA;&#x9;C1722.963623,1004.571838 1759.360962,1005.352722 1795.183228,1014.039429 &#xA;&#x9;C1845.166138,1026.160034 1885.676636,1052.147339 1912.061890,1097.450073 &#xA;&#x9;C1926.244263,1121.800659 1932.662231,1148.542847 1934.495972,1176.441772 &#xA;&#x9;C1936.876709,1212.662231 1933.228882,1248.032593 1917.393799,1281.229980 &#xA;&#x9;C1898.855835,1320.093872 1868.609741,1346.832397 1829.485474,1363.828979 &#xA;&#x9;C1803.241089,1375.230469 1775.551758,1380.400513 1747.073486,1382.033691 &#xA;&#x9;C1712.198730,1384.033813 1677.780151,1381.596558 1644.392700,1370.851685 &#xA;&#x9;C1594.050171,1354.650269 1555.856201,1324.101318 1534.550903,1274.728149 &#xA;&#x9;C1520.491577,1242.146851 1517.827881,1207.770142 1520.620850,1172.829468 &#xA;&#x9;C1523.354980,1138.629028 1533.436279,1106.965210 1554.611450,1079.439209 &#xA;&#x9;C1567.232666,1063.032349 1582.486694,1049.489136 1600.311890,1038.284912 &#xA;z"></path>
<path fill="#00B7FF" opacity="1.000000" stroke="none" d="&#xA;M1671.740356,1525.790283 &#xA;&#x9;C1718.730713,1522.286255 1764.225220,1525.738647 1806.200439,1548.398438 &#xA;&#x9;C1853.324951,1573.838501 1880.253418,1613.546387 1887.107422,1666.705688 &#xA;&#x9;C1891.162842,1698.160400 1889.683716,1729.260376 1879.401978,1759.477783 &#xA;&#x9;C1864.554565,1803.114258 1834.434448,1832.594727 1792.830322,1850.938354 &#xA;&#x9;C1763.537476,1863.853882 1732.521851,1868.203735 1700.774902,1868.361450 &#xA;&#x9;C1665.247925,1868.538086 1630.621704,1863.662842 1598.431885,1847.748901 &#xA;&#x9;C1549.656250,1823.635254 1520.288574,1784.818848 1511.867676,1730.739014 &#xA;&#x9;C1506.610352,1696.975708 1508.099365,1663.583130 1519.519043,1631.177856 &#xA;&#x9;C1534.787842,1587.849731 1565.515015,1559.099854 1607.010010,1541.208618 &#xA;&#x9;C1627.480225,1532.382568 1649.065552,1527.643433 1671.740356,1525.790283 &#xA;z"></path>
<path fill="#FFFFFF" opacity="1.000000" stroke="none" d="&#xA;M814.286438,1719.246826 &#xA;&#x9;C788.398376,1774.968506 747.476013,1815.018921 691.240723,1838.479736 &#xA;&#x9;C652.313721,1854.719849 611.841125,1857.397827 571.030823,1845.440796 &#xA;&#x9;C547.860229,1838.652222 527.753357,1826.112549 509.591064,1810.340576 &#xA;&#x9;C478.605927,1783.433472 459.202942,1748.827759 444.192566,1711.416016 &#xA;&#x9;C427.410522,1669.588745 416.679535,1626.058105 409.063446,1581.741333 &#xA;&#x9;C396.337860,1507.693359 391.593170,1432.942139 389.842712,1357.940796 &#xA;&#x9;C388.423248,1297.118774 388.247803,1236.301636 391.087524,1175.514038 &#xA;&#x9;C393.326752,1127.580200 397.491638,1079.822144 404.804382,1032.360107 &#xA;&#x9;C412.618103,981.646606 423.635254,931.737915 442.026733,883.702637 &#xA;&#x9;C458.368896,841.019958 479.879395,801.219788 510.228149,766.742737 &#xA;&#x9;C541.790894,730.886475 580.352539,706.601318 628.228088,699.526611 &#xA;&#x9;C664.538452,694.160828 700.279358,698.084900 735.190186,709.367371 &#xA;&#x9;C764.174988,718.734741 790.839172,732.308350 812.763306,753.865051 &#xA;&#x9;C820.572388,761.543213 827.555725,770.083069 834.611755,778.485107 &#xA;&#x9;C835.895752,780.014038 836.129333,782.779968 836.133667,784.976257 &#xA;&#x9;C836.217896,827.970093 836.196228,870.964233 836.196289,913.958252 &#xA;&#x9;C836.196716,1149.425659 836.086670,1384.893188 836.343262,1620.360352 &#xA;&#x9;C836.373840,1648.447144 830.414001,1675.094604 821.472595,1701.342651 &#xA;&#x9;C819.442444,1707.302246 816.806763,1713.055420 814.286438,1719.246826 &#xA;z"></path>
</svg>